<svg width="20" height="20" viewBox="0 0 20 20" fill="none" xmlns="http://www.w3.org/2000/svg">
<path fill-rule="evenodd" clip-rule="evenodd" d="M2.5 2.5H17.5V17.5H2.5V2.5ZM10 14.0909C12.2593 14.0909 14.0909 12.2593 14.0909 10C14.0909 7.74065 12.2593 5.90909 10 5.90909C7.74065 5.90909 5.90909 7.74065 5.90909 10C5.90909 12.2593 7.74065 14.0909 10 14.0909ZM13.75 4.88636H15.1136V6.25H13.75V4.88636ZM10 12.3864C11.318 12.3864 12.3864 11.318 12.3864 10C12.3864 8.68205 11.318 7.61364 10 7.61364C8.68205 7.61364 7.61364 8.68205 7.61364 10C7.61364 11.318 8.68205 12.3864 10 12.3864Z" fill="#FFF3FF"/>
</svg>
