<svg width="20" height="20" viewBox="0 0 20 20" fill="none" xmlns="http://www.w3.org/2000/svg">
<path fill-rule="evenodd" clip-rule="evenodd" d="M10.0884 17.6879C14.3831 17.6879 17.8647 14.2064 17.8647 9.91172C17.8647 5.61703 14.3831 2.1355 10.0884 2.1355C5.79376 2.1355 2.31223 5.61703 2.31223 9.91172C2.31223 11.3424 2.69857 12.6828 3.37262 13.8343L2.1355 17.8647L6.02361 16.5422C7.2064 17.2689 8.59849 17.6879 10.0884 17.6879ZM6.37706 6.37707H9.20477L9.73497 8.67459L9.9117 9.55825L8.67458 9.91171L10.0884 11.679L10.9721 10.4419L13.9765 10.9721L13.7998 13.7998C9.02804 14.33 5.84686 10.0884 6.37706 6.37707Z" fill="#FFF3FF"/>
</svg>
