<svg width="18" height="4" viewBox="0 0 18 4" fill="none" xmlns="http://www.w3.org/2000/svg">
<path d="M5.28523 3.56284H3.59882C3.76859 3.43908 3.91174 3.28232 4.01974 3.10191C4.12774 2.92151 4.19836 2.72115 4.2274 2.51281C4.2598 2.27969 4.24518 2.04243 4.18441 1.81509C4.12363 1.58774 4.01794 1.37492 3.8736 1.18924C3.71369 0.983195 3.51431 0.811236 3.28717 0.683454C3.06002 0.555673 2.80969 0.474645 2.55087 0.445127C2.26731 0.413602 1.98032 0.438807 1.70655 0.519278C1.43278 0.59975 1.17768 0.733887 0.956055 0.913909C1.15214 0.67254 1.39406 0.472548 1.66781 0.325513C1.94157 0.178478 2.24171 0.0873225 2.55087 0.0573244C2.87945 0.0251914 3.21113 0.0582115 3.52698 0.1545C3.85529 0.255259 4.16047 0.42008 4.42496 0.639478C4.69727 0.867454 4.92214 1.14689 5.08677 1.46187C5.25651 1.78866 5.36026 2.14579 5.39209 2.51281C5.4218 2.86643 5.38556 3.22251 5.28523 3.56284Z" fill="#FD7F00"/>
<path d="M1.99159 0.734375L2.50344 3.56326H1.47974L1.99159 0.734375Z" fill="#FD7F00"/>
<path d="M8.06919 3.60872C7.80437 3.60872 7.56042 3.56218 7.33733 3.46909C7.11425 3.376 6.92647 3.24921 6.774 3.08872C6.62313 2.92662 6.50517 2.73483 6.42011 2.51334C6.33665 2.29186 6.29492 2.05513 6.29492 1.80316C6.29492 1.46451 6.36634 1.15957 6.50918 0.888337C6.65363 0.615497 6.86147 0.399631 7.1327 0.240742C7.40394 0.0802473 7.7161 0 8.06919 0C8.3324 0 8.57555 0.0465434 8.79864 0.13963C9.02172 0.232717 9.2095 0.359508 9.36197 0.520002C9.51444 0.680497 9.63321 0.871485 9.71827 1.09297C9.80333 1.31445 9.84586 1.55118 9.84586 1.80316C9.84586 2.1418 9.77284 2.44754 9.62679 2.72038C9.48234 2.99322 9.2737 3.20989 9.00086 3.37038C8.72962 3.52927 8.41907 3.60872 8.06919 3.60872ZM7.39511 1.01352C7.22659 1.22056 7.14233 1.48377 7.14233 1.80316C7.14233 2.12254 7.22659 2.38575 7.39511 2.59279C7.56524 2.79983 7.78993 2.90335 8.06919 2.90335C8.34524 2.90335 8.56833 2.79983 8.73845 2.59279C8.91018 2.38415 8.99604 2.12093 8.99604 1.80316C8.99604 1.48538 8.91018 1.22297 8.73845 1.01593C8.56833 0.807288 8.34524 0.702966 8.06919 0.702966C7.78993 0.702966 7.56524 0.806485 7.39511 1.01352Z" fill="#FAE7C4"/>
<path d="M10.089 3.52927V0.96056H10.7944V1.60093C10.8104 1.51748 10.8385 1.43562 10.8786 1.35538C10.9204 1.27352 10.9741 1.19649 11.0399 1.12426C11.1057 1.05204 11.19 0.993461 11.2927 0.948523C11.3954 0.903584 11.5086 0.881115 11.6322 0.881115C11.8745 0.881115 12.0719 0.969387 12.2244 1.14593C12.3785 1.32087 12.4555 1.58248 12.4555 1.93075V3.52927H11.7525V2.10408C11.7525 1.92754 11.7156 1.7847 11.6418 1.67556C11.5696 1.56643 11.4628 1.51186 11.3216 1.51186C11.2012 1.51186 11.1001 1.54476 11.0183 1.61056C10.938 1.67476 10.8802 1.75661 10.8449 1.85612C10.8112 1.95402 10.7944 2.06476 10.7944 2.18834V3.52927H10.089Z" fill="#FAE7C4"/>
<path d="M15.3564 3.52927V0.0247834H16.0618V1.60093C16.0779 1.51748 16.1059 1.43562 16.1461 1.35538C16.1878 1.27352 16.2416 1.19649 16.3074 1.12426C16.3732 1.05204 16.4574 0.993461 16.5601 0.948523C16.6629 0.903584 16.776 0.881115 16.8996 0.881115C17.1419 0.881115 17.3393 0.969387 17.4918 1.14593C17.6459 1.32087 17.7229 1.58248 17.7229 1.93075V3.52927H17.02V2.10408C17.02 1.92754 16.9831 1.7847 16.9092 1.67556C16.837 1.56643 16.7303 1.51186 16.589 1.51186C16.4687 1.51186 16.3676 1.54476 16.2857 1.61056C16.2055 1.67476 16.1477 1.75661 16.1124 1.85612C16.0787 1.95402 16.0618 2.06476 16.0618 2.18834V3.52927H15.3564Z" fill="#FAE7C4"/>
<path d="M13.9402 0.804894C14.2515 0.804894 14.5098 0.896868 14.7149 1.08082C14.9201 1.26123 15.0227 1.51592 15.0227 1.84491V3.53228H14.3541V3.30411C14.1879 3.50575 13.9473 3.60657 13.6325 3.60657C13.3813 3.60657 13.1691 3.53405 12.9957 3.38901C12.8259 3.24044 12.741 3.0335 12.741 2.76819C12.741 2.50288 12.8259 2.2977 12.9957 2.15267C13.1691 2.00763 13.3813 1.93511 13.6325 1.93511C13.9332 1.93511 14.1737 2.01294 14.3541 2.16859V1.88736C14.3541 1.59021 14.2162 1.44164 13.9402 1.44164C13.8164 1.44164 13.7174 1.47347 13.6431 1.53715C13.5688 1.59729 13.5317 1.67865 13.5317 1.78123H12.8631C12.8631 1.48055 12.9657 1.24354 13.1708 1.0702C13.3795 0.893331 13.636 0.804894 13.9402 0.804894ZM13.8659 3.09717C14.0145 3.09717 14.133 3.0671 14.2215 3.00697C14.3099 2.94329 14.3541 2.8637 14.3541 2.76819C14.3541 2.6656 14.3099 2.58601 14.2215 2.52941C14.1366 2.46927 14.0181 2.4392 13.8659 2.4392C13.7209 2.4392 13.6112 2.46927 13.537 2.52941C13.4627 2.58955 13.4255 2.66914 13.4255 2.76819C13.4255 2.86724 13.4627 2.94683 13.537 3.00697C13.6112 3.0671 13.7209 3.09717 13.8659 3.09717Z" fill="#FAE7C4"/>
</svg>
