<svg width="27" height="27" viewBox="0 0 27 27" fill="none" xmlns="http://www.w3.org/2000/svg">
<path d="M7.90008 0.166504H19.1001C23.3667 0.166504 26.8334 3.63317 26.8334 7.89984V19.0998C26.8334 21.1508 26.0187 23.1178 24.5684 24.5681C23.1181 26.0184 21.1511 26.8332 19.1001 26.8332H7.90008C3.63341 26.8332 0.166748 23.3665 0.166748 19.0998V7.89984C0.166748 5.84883 0.981508 3.88183 2.43179 2.43154C3.88207 0.981264 5.84907 0.166504 7.90008 0.166504ZM7.63341 2.83317C6.36037 2.83317 5.13948 3.33888 4.2393 4.23906C3.33913 5.13923 2.83341 6.36013 2.83341 7.63317V19.3665C2.83341 22.0198 4.98008 24.1665 7.63341 24.1665H19.3667C20.6398 24.1665 21.8607 23.6608 22.7609 22.7606C23.661 21.8604 24.1667 20.6395 24.1667 19.3665V7.63317C24.1667 4.97984 22.0201 2.83317 19.3667 2.83317H7.63341ZM20.5001 4.83317C20.9421 4.83317 21.366 5.00877 21.6786 5.32133C21.9912 5.63389 22.1667 6.05781 22.1667 6.49984C22.1667 6.94186 21.9912 7.36579 21.6786 7.67835C21.366 7.99091 20.9421 8.1665 20.5001 8.1665C20.0581 8.1665 19.6341 7.99091 19.3216 7.67835C19.009 7.36579 18.8334 6.94186 18.8334 6.49984C18.8334 6.05781 19.009 5.63389 19.3216 5.32133C19.6341 5.00877 20.0581 4.83317 20.5001 4.83317ZM13.5001 6.83317C15.2682 6.83317 16.9639 7.53555 18.2141 8.78579C19.4644 10.036 20.1667 11.7317 20.1667 13.4998C20.1667 15.2679 19.4644 16.9636 18.2141 18.2139C16.9639 19.4641 15.2682 20.1665 13.5001 20.1665C11.732 20.1665 10.0363 19.4641 8.78604 18.2139C7.53579 16.9636 6.83341 15.2679 6.83341 13.4998C6.83341 11.7317 7.53579 10.036 8.78604 8.78579C10.0363 7.53555 11.732 6.83317 13.5001 6.83317ZM13.5001 9.49984C12.4392 9.49984 11.4218 9.92126 10.6717 10.6714C9.92151 11.4216 9.50008 12.439 9.50008 13.4998C9.50008 14.5607 9.92151 15.5781 10.6717 16.3283C11.4218 17.0784 12.4392 17.4998 13.5001 17.4998C14.5609 17.4998 15.5784 17.0784 16.3285 16.3283C17.0787 15.5781 17.5001 14.5607 17.5001 13.4998C17.5001 12.439 17.0787 11.4216 16.3285 10.6714C15.5784 9.92126 14.5609 9.49984 13.5001 9.49984Z" fill="black"/>
</svg>
