<svg width="35" height="35" viewBox="0 0 41 40" fill="none" xmlns="http://www.w3.org/2000/svg">
<g id="iconamoon:profile">
<g id="Group">
<path id="Vector" d="M6.91675 30C6.91675 28.2319 7.61913 26.5362 8.86937 25.286C10.1196 24.0358 11.8153 23.3334 13.5834 23.3334H26.9167C28.6849 23.3334 30.3805 24.0358 31.6308 25.286C32.881 26.5362 33.5834 28.2319 33.5834 30C33.5834 30.8841 33.2322 31.7319 32.6071 32.3571C31.982 32.9822 31.1341 33.3334 30.2501 33.3334H10.2501C9.36603 33.3334 8.51818 32.9822 7.89306 32.3571C7.26794 31.7319 6.91675 30.8841 6.91675 30Z" stroke="white" stroke-width="2" stroke-linejoin="round"/>
<path id="Vector_2" d="M20.25 16.6667C23.0114 16.6667 25.25 14.4281 25.25 11.6667C25.25 8.90526 23.0114 6.66669 20.25 6.66669C17.4886 6.66669 15.25 8.90526 15.25 11.6667C15.25 14.4281 17.4886 16.6667 20.25 16.6667Z" stroke="white" stroke-width="2"/>
</g>
</g>
</svg>
