<svg width="35" height="35" viewBox="0 0 41 40" fill="none" xmlns="http://www.w3.org/2000/svg">
<g id="raphael:cart">
<path id="Vector" d="M36.5251 14.6925L10.7701 11.8425L9.20006 5.89374C9.14548 5.69422 9.02712 5.51804 8.86303 5.3921C8.69895 5.26616 8.49815 5.19737 8.29131 5.19624H4.42506C4.28532 5.00814 4.10393 4.85495 3.89508 4.74869C3.68624 4.64242 3.45562 4.58596 3.22131 4.58374C2.80973 4.58374 2.415 4.74724 2.12397 5.03827C1.83293 5.32931 1.66943 5.72403 1.66943 6.13562C1.66943 6.5472 1.83293 6.94192 2.12397 7.23296C2.415 7.52399 2.80973 7.68749 3.22131 7.68749C3.72131 7.68749 4.14381 7.43749 4.42756 7.07249H7.56756L14.1051 31.8225C13.3919 32.5816 12.9942 33.5835 12.9926 34.625C12.9921 35.1656 13.0982 35.701 13.3048 36.2005C13.5114 36.7001 13.8144 37.154 14.1966 37.5363C14.5788 37.9186 15.0327 38.2218 15.5321 38.4286C16.0316 38.6353 16.567 38.7416 17.1076 38.7412C18.1998 38.7416 19.2475 38.3082 20.0203 37.5363C20.7931 36.7644 21.2278 35.7173 21.2288 34.625C21.2267 34.3119 21.1876 34.0002 21.1126 33.6962H28.0288C27.9548 34.0004 27.9162 34.312 27.9138 34.625C27.9138 36.9 29.7588 38.7412 32.0338 38.7412C34.3088 38.7412 36.1501 36.9 36.1501 34.625C36.1504 33.5325 35.7168 32.4846 34.9447 31.7118C34.1725 30.9389 33.125 30.5044 32.0326 30.5037C30.8451 30.5037 29.7826 31.0162 29.0301 31.82H20.1101C19.7272 31.4056 19.2629 31.0748 18.7463 30.8483C18.2296 30.6218 17.6717 30.5045 17.1076 30.5037C16.6326 30.5037 16.1851 30.6012 15.7613 30.7487L15.5338 29.8912H33.7626C34.4631 29.8769 35.1385 29.6276 35.6803 29.1833C36.2221 28.7389 36.5989 28.1254 36.7501 27.4412L38.7188 17.6937C38.752 17.5232 38.7687 17.3499 38.7688 17.1762C38.7698 16.5575 38.5406 15.9605 38.126 15.5012C37.7113 15.042 37.1407 14.7545 36.5251 14.6925ZM32.0351 34.9925C31.9371 34.9922 31.8433 34.9533 31.7738 34.8843C31.7043 34.8153 31.6648 34.7217 31.6638 34.6237C31.6676 34.4162 31.8326 34.2512 32.0363 34.2512C32.2401 34.2512 32.4051 34.4162 32.4076 34.6225C32.4062 34.7202 32.3666 34.8135 32.2971 34.8822C32.2277 34.951 32.134 34.9897 32.0363 34.99L32.0351 34.9925ZM34.2601 25.6237L35.4451 24.4362L35.0476 26.4112L34.2601 25.6237ZM16.1938 14.3275L17.4876 15.625L15.8751 17.2375L14.2588 15.625L15.6176 14.265L16.1926 14.3275H16.1938ZM21.8163 14.95L22.4888 15.625L20.8763 17.2375L19.2601 15.625L20.1201 14.7625L21.8163 14.95ZM12.2876 17.595L13.3751 16.51L14.9876 18.125L13.3751 19.7375L12.6688 19.0337L12.2888 17.5937L12.2876 17.595ZM11.9188 16.195L11.5088 14.645L12.4901 15.6262L11.9188 16.195ZM27.4876 20.625L25.8751 22.2375L24.2588 20.625L25.8738 19.0087L27.4863 20.6237L27.4876 20.625ZM26.7588 18.125L28.3738 16.51L29.9863 18.125L28.3738 19.74L26.7576 18.125H26.7588ZM23.3751 19.7375L21.7588 18.125L23.3738 16.5087L24.9863 18.1237L23.3738 19.7362L23.3751 19.7375ZM22.4876 20.625L20.8751 22.2375L19.2601 20.625L20.8751 19.0087L22.4876 20.625ZM18.3751 19.7375L16.7588 18.125L18.3738 16.5087L19.9863 18.1237L18.3738 19.7362L18.3751 19.7375ZM17.4876 20.625L15.8751 22.2375L14.2588 20.625L15.8738 19.0087L17.4863 20.6237L17.4876 20.625ZM13.3751 21.5087L14.9876 23.1237L14.0076 24.1025L13.3326 21.5475L13.3738 21.5062L13.3751 21.5087ZM14.3776 25.505L15.8738 24.0087L17.4863 25.6237L15.8738 27.2362L14.4613 25.8237L14.3763 25.5037L14.3776 25.505ZM16.7601 23.1237L18.3726 21.5075L19.9888 23.1225L18.3763 24.735L16.7613 23.1225L16.7601 23.1237ZM20.8751 24.0075L22.4901 25.6225L20.8751 27.235L19.2601 25.6225L20.8751 24.0075ZM21.7601 23.1225L23.3751 21.5062L24.9876 23.1212L23.3751 24.7337L21.7601 23.1225ZM25.8726 24.0062L27.4888 25.6212L25.8763 27.2337L24.2613 25.6187L25.8738 24.0062H25.8726ZM26.7601 23.1212L28.3726 21.505L29.9888 23.12L28.3763 24.7325L26.7601 23.1212ZM29.2601 20.6212L30.8726 19.005L32.4888 20.62L30.8763 22.2325L29.2601 20.6212ZM31.7601 18.1212L33.3726 16.505L34.9876 18.125L33.3751 19.74L31.7588 18.1237L31.7601 18.1212ZM30.8726 17.2362L29.4288 15.7912L32.0313 16.0787L30.8738 17.2362H30.8726ZM27.4901 15.625L25.8776 17.24L24.2613 15.625L24.6238 15.2625L27.4401 15.575L27.4901 15.625ZM18.3776 14.7375L18.1876 14.55L18.5288 14.5875L18.3788 14.7375H18.3776ZM13.3776 14.74L12.5651 13.9275L14.0276 14.09L13.3776 14.74ZM18.3776 26.5087L19.8838 28.015H16.8713L18.3776 26.5087ZM23.3776 26.5087L24.8838 28.0162H21.8688L23.3763 26.5087H23.3776ZM28.3776 26.5087L29.8863 28.0175H26.8688L28.3763 26.5087H28.3776ZM29.2613 25.6237L30.8763 24.0075L32.4888 25.6225L30.8763 27.235L29.2601 25.6225L29.2613 25.6237ZM31.7613 23.1237L33.3763 21.5087L34.9888 23.1212L33.3763 24.7375L31.7601 23.125L31.7613 23.1237ZM35.8763 22.2362L34.2613 20.6237L35.8738 19.0087L36.4301 19.5637L35.8926 22.2187L35.8751 22.2375L35.8763 22.2362ZM36.5013 16.6112L35.8763 17.2362L35.0513 16.415L36.3226 16.555C36.3901 16.565 36.4476 16.5875 36.5026 16.61L36.5013 16.6112ZM17.1101 34.9912C17.0155 34.9857 16.9266 34.9443 16.8616 34.8754C16.7966 34.8065 16.7603 34.7154 16.7603 34.6206C16.7603 34.5259 16.7966 34.4347 16.8616 34.3658C16.9266 34.2969 17.0155 34.2555 17.1101 34.25C17.2043 34.2555 17.2929 34.2968 17.3577 34.3654C17.4225 34.4341 17.4586 34.525 17.4586 34.6194C17.4586 34.7138 17.4225 34.8046 17.3577 34.8733C17.2929 34.9419 17.2043 34.9833 17.1101 34.9887V34.9912ZM33.7638 28.0162H31.8676L33.3763 26.5075L34.5388 27.67C34.3051 27.8825 34.0101 28.0325 33.7638 28.0162Z" fill="white"/>
</g>
</svg>
