<svg width="35" height="35" viewBox="0 0 41 40" fill="none" xmlns="http://www.w3.org/2000/svg">
<g id="material-symbols:light-mode">
<path id="Vector" d="M20.2501 28.3334C17.9445 28.3334 15.979 27.5206 14.3534 25.895C12.7279 24.2695 11.9156 22.3045 11.9168 20C11.9168 17.6945 12.7295 15.7289 14.3551 14.1034C15.9806 12.4778 17.9456 11.6656 20.2501 11.6667C22.5556 11.6667 24.5212 12.4795 26.1468 14.105C27.7723 15.7306 28.5845 17.6956 28.5834 20C28.5834 22.3056 27.7706 24.2711 26.1451 25.8967C24.5195 27.5222 22.5545 28.3345 20.2501 28.3334ZM3.58342 21.6667C3.1112 21.6667 2.71509 21.5067 2.39509 21.1867C2.07509 20.8667 1.91564 20.4711 1.91675 20C1.91675 19.5278 2.07675 19.1317 2.39675 18.8117C2.71675 18.4917 3.11231 18.3322 3.58342 18.3334H6.91675C7.38898 18.3334 7.78509 18.4934 8.10509 18.8134C8.42509 19.1334 8.58453 19.5289 8.58342 20C8.58342 20.4722 8.42342 20.8684 8.10342 21.1884C7.78342 21.5084 7.38787 21.6678 6.91675 21.6667H3.58342ZM33.5834 21.6667C33.1112 21.6667 32.7151 21.5067 32.3951 21.1867C32.0751 20.8667 31.9156 20.4711 31.9168 20C31.9168 19.5278 32.0768 19.1317 32.3968 18.8117C32.7168 18.4917 33.1123 18.3322 33.5834 18.3334H36.9168C37.389 18.3334 37.7851 18.4934 38.1051 18.8134C38.4251 19.1334 38.5845 19.5289 38.5834 20C38.5834 20.4722 38.4234 20.8684 38.1034 21.1884C37.7834 21.5084 37.3879 21.6678 36.9168 21.6667H33.5834ZM20.2501 8.33336C19.7779 8.33336 19.3818 8.17336 19.0618 7.85336C18.7418 7.53336 18.5823 7.1378 18.5834 6.66669V3.33336C18.5834 2.86114 18.7434 2.46503 19.0634 2.14503C19.3834 1.82503 19.779 1.66558 20.2501 1.66669C20.7223 1.66669 21.1184 1.82669 21.4384 2.14669C21.7584 2.46669 21.9179 2.86225 21.9168 3.33336V6.66669C21.9168 7.13892 21.7568 7.53503 21.4368 7.85503C21.1168 8.17503 20.7212 8.33447 20.2501 8.33336ZM20.2501 38.3334C19.7779 38.3334 19.3818 38.1734 19.0618 37.8534C18.7418 37.5334 18.5823 37.1378 18.5834 36.6667V33.3334C18.5834 32.8611 18.7434 32.465 19.0634 32.145C19.3834 31.825 19.779 31.6656 20.2501 31.6667C20.7223 31.6667 21.1184 31.8267 21.4384 32.1467C21.7584 32.4667 21.9179 32.8622 21.9168 33.3334V36.6667C21.9168 37.1389 21.7568 37.535 21.4368 37.855C21.1168 38.175 20.7212 38.3345 20.2501 38.3334ZM9.66675 11.75L7.87509 10C7.54175 9.69447 7.38175 9.30558 7.39509 8.83336C7.40842 8.36114 7.56842 7.95836 7.87509 7.62503C8.20842 7.29169 8.6112 7.12503 9.08342 7.12503C9.55564 7.12503 9.94453 7.29169 10.2501 7.62503L12.0001 9.41669C12.3056 9.75003 12.4584 10.1389 12.4584 10.5834C12.4584 11.0278 12.3056 11.4167 12.0001 11.75C11.6945 12.0834 11.3129 12.2434 10.8551 12.23C10.3973 12.2167 10.0012 12.0567 9.66675 11.75ZM30.2501 32.375L28.5001 30.5834C28.1945 30.25 28.0418 29.8539 28.0418 29.395C28.0418 28.9361 28.1945 28.5545 28.5001 28.25C28.8056 27.9167 29.1879 27.7572 29.6468 27.7717C30.1056 27.7861 30.5012 27.9456 30.8334 28.25L32.6251 30C32.9584 30.3056 33.1184 30.6945 33.1051 31.1667C33.0918 31.6389 32.9318 32.0417 32.6251 32.375C32.2918 32.7084 31.889 32.875 31.4168 32.875C30.9445 32.875 30.5556 32.7084 30.2501 32.375ZM28.5001 11.75C28.1668 11.4445 28.0068 11.0628 28.0201 10.605C28.0334 10.1472 28.1934 9.75114 28.5001 9.41669L30.2501 7.62503C30.5556 7.29169 30.9445 7.13169 31.4168 7.14503C31.889 7.15836 32.2918 7.31836 32.6251 7.62503C32.9584 7.95836 33.1251 8.36114 33.1251 8.83336C33.1251 9.30558 32.9584 9.69447 32.6251 10L30.8334 11.75C30.5001 12.0556 30.1112 12.2084 29.6668 12.2084C29.2223 12.2084 28.8334 12.0556 28.5001 11.75ZM7.87509 32.375C7.54175 32.0417 7.37509 31.6389 7.37509 31.1667C7.37509 30.6945 7.54175 30.3056 7.87509 30L9.66675 28.25C10.0001 27.9445 10.3956 27.7917 10.8534 27.7917C11.3112 27.7917 11.6934 27.9445 12.0001 28.25C12.3334 28.5556 12.4934 28.9378 12.4801 29.3967C12.4668 29.8556 12.3068 30.2511 12.0001 30.5834L10.2501 32.375C9.94453 32.7084 9.55564 32.8684 9.08342 32.855C8.6112 32.8417 8.20842 32.6817 7.87509 32.375Z" fill="white"/>
</g>
</svg>
