<svg width="90" height="50" viewBox="0 0 97 70" fill="none" xmlns="http://www.w3.org/2000/svg">
<path d="M26.2001 36.3126L30.1646 24.9679L39.9226 33.385L36.8536 52.7934C36.5417 54.7656 38.1476 56.5145 40.1393 56.3715L59.8777 54.9549C62.6369 54.7569 63.7762 51.3194 61.6815 49.5125L42.072 32.5977L43.0435 26.4536L51.1418 30.8084L51.6154 29.9276L51.1418 30.8084C51.1888 30.8336 51.2339 30.8623 51.2767 30.894L51.8727 30.0911L51.2767 30.894L94.923 63.2913C95.7546 63.9085 95.3523 65.228 94.3178 65.2764L17.6927 68.8612C16.9301 68.8969 16.3633 68.165 16.5885 67.4357L26.2001 36.3126ZM40.2902 31.0608L30.8738 22.9384L31.7648 20.3887L41.1774 25.4501L40.2902 31.0608ZM41.5083 23.3573L32.4328 18.477L34.7019 11.984C34.8564 11.5419 35.2735 11.2458 35.7419 11.2458H73.3086C73.5261 11.2458 73.7387 11.3101 73.9197 11.4308L74.7912 12.0118C75.6748 12.6009 75.2954 13.9761 74.2347 14.0288L45.2525 15.4674C43.7863 15.5402 42.5719 16.6309 42.3427 18.0809L41.5083 23.3573ZM2.78286 1.34897L6.42841 4.49355L2.18819 2.21343C1.78887 1.9987 1.82831 1.41363 2.25283 1.25444C2.43351 1.18669 2.63675 1.22293 2.78286 1.34897ZM29.9813 19.4296L29.2459 21.5342L21.5497 14.8957L29.9813 19.4296Z" fill="#1C435A" stroke="#2BAF16" stroke-width="2"/>
</svg>
