<svg width="30" height="32" viewBox="0 0 30 32" fill="none" xmlns="http://www.w3.org/2000/svg">
<path id="Rectangle 3" d="M8.82996 16.6785L9.75312 12.8481L11.7805 15.3838L10.9821 22.7044C10.7679 24.669 12.421 26.3302 14.3866 26.1257L16.6265 25.8926C19.0665 25.6387 20.2599 22.7867 18.728 20.8706L13.8582 14.7797L14.0221 13.2769L15.4617 14.3994C15.508 14.4355 15.5514 14.4753 15.5914 14.5183L27.7672 27.623C28.3981 28.3021 27.9595 29.4093 27.0347 29.472L7.25446 30.8139C6.52453 30.8634 5.94997 30.2008 6.10237 29.4852L8.82996 16.6785ZM12.0878 12.5655L10.3963 10.4498L12.1679 11.8312L12.0878 12.5655ZM12.4548 9.20027L12.4228 9.4938L10.8559 8.27209L11.2764 6.52735C11.3957 6.0325 11.8384 5.68378 12.3475 5.68378H22.7573C22.7863 5.68378 22.8141 5.69502 22.8349 5.71513C22.8612 5.74057 22.8665 5.75823 22.8687 5.76884C22.8719 5.78427 22.8717 5.80732 22.8622 5.83343C22.8527 5.85953 22.8381 5.87735 22.8258 5.88714C22.8173 5.89387 22.8019 5.904 22.7654 5.90663L15.3156 6.44284C13.8211 6.5504 12.6173 7.71083 12.4548 9.20027Z" fill="#1C435A" stroke="#2BAF16" stroke-width="2"/>
</svg>
