<svg width="26" height="26" viewBox="0 0 26 26" fill="none" xmlns="http://www.w3.org/2000/svg">
<path d="M24.2963 17.3077L18.4075 14.669L18.3913 14.6615C18.0856 14.5307 17.7521 14.4783 17.421 14.5088C17.0899 14.5394 16.7716 14.652 16.495 14.8365C16.4624 14.858 16.4311 14.8814 16.4013 14.9065L13.3588 17.5002C11.4313 16.564 9.44126 14.589 8.50501 12.6865L11.1025 9.59774C11.1275 9.56649 11.1513 9.53524 11.1738 9.50149C11.3543 9.22561 11.4638 8.90939 11.4926 8.58095C11.5214 8.25252 11.4686 7.92206 11.3388 7.61898V7.60399L8.69251 1.70524C8.52094 1.30932 8.22592 0.979504 7.85149 0.765033C7.47707 0.550563 7.04333 0.462936 6.61501 0.515235C4.92122 0.738119 3.36649 1.56995 2.24118 2.85535C1.11587 4.14076 0.496949 5.79185 0.500011 7.50024C0.500011 17.4252 8.57501 25.5002 18.5 25.5002C20.2084 25.5033 21.8595 24.8844 23.1449 23.7591C24.4303 22.6338 25.2621 21.079 25.485 19.3852C25.5374 18.9571 25.45 18.5234 25.2357 18.149C25.0215 17.7746 24.6919 17.4795 24.2963 17.3077ZM18.5 23.5002C14.258 23.4956 10.191 21.8084 7.19142 18.8088C4.19184 15.8092 2.50464 11.7423 2.50001 7.50024C2.49531 6.2796 2.93507 5.09898 3.73718 4.17887C4.53929 3.25876 5.64889 2.66207 6.85876 2.50024C6.85827 2.50522 6.85827 2.51025 6.85876 2.51524L9.48376 8.39024L6.90001 11.4827C6.87379 11.5129 6.84996 11.5451 6.82876 11.579C6.64066 11.8676 6.5303 12.2 6.5084 12.5438C6.4865 12.8876 6.5538 13.2313 6.70376 13.5415C7.83626 15.8577 10.17 18.174 12.5113 19.3052C12.8237 19.4538 13.1694 19.5188 13.5144 19.4938C13.8595 19.4688 14.1922 19.3547 14.48 19.1627C14.5121 19.1411 14.543 19.1177 14.5725 19.0927L17.6113 16.5002L23.4863 19.1315H23.5C23.3402 20.3431 22.7444 21.4549 21.8241 22.259C20.9038 23.0631 19.7221 23.5044 18.5 23.5002Z" fill="black"/>
</svg>
